<svg aria-hidden="true" style="position: absolute; width: 0; height: 0; overflow: hidden;" version="1.1"
    xmlns="http://www.w3.org/2000/svg" xmlns:xlink="http://www.w3.org/1999/xlink">
    <defs>
        <symbol id="icon-logo" viewBox="0 0 132 24">
            <path d="M4.98 13.28L0 5H2.98L6.32 10.74H6.36L9.7 5H12.68L7.7 13.28V19H4.98V13.28Z" />
            <path
                d="M12.6703 16.7V7.3L14.9703 5H22.1703L24.4703 7.3V16.7L22.1703 19H14.9703L12.6703 16.7ZM20.7303 16.68L21.7503 15.66V8.34L20.7303 7.32H16.4103L15.3903 8.34V15.66L16.4103 16.68H20.7303Z" />
            <path
                d="M26.3742 16.6V5H29.0942V15.66L30.1142 16.68H34.0342L35.0542 15.66V5H37.7742V16.6L35.3742 19H28.7742L26.3742 16.6Z" />
            <path
                d="M50.8781 14.36V19H48.1581V14.98L46.9581 13.64H42.5981V19H39.8781V5H48.6581L50.7981 7.16V11.4L49.4381 12.78L50.8781 14.36ZM42.5981 11.4H47.4181L48.1181 10.7V7.98L47.4181 7.28H42.5981V11.4Z" />
            <path d="M57.8234 5H67.9434V7.3H60.5434V10.84H67.3634V13.1H60.5434V16.7H67.9434V19H57.8234V5Z" />
            <path d="M69.4523 5H71.8923L78.1323 14.5H78.1723V5H80.7923V19H78.3523L72.1123 9.52H72.0723V19H69.4523V5Z" />
            <path d="M82.8977 5H93.0177V7.3H85.6177V10.84H92.4377V13.1H85.6177V16.7H93.0177V19H82.8977V5Z" />
            <path
                d="M105.527 14.36V19H102.807V14.98L101.607 13.64H97.2466V19H94.5266V5H103.307L105.447 7.16V11.4L104.087 12.78L105.527 14.36ZM97.2466 11.4H102.067L102.767 10.7V7.98L102.067 7.28H97.2466V11.4Z" />
            <path
                d="M107.323 16.7V7.3L109.623 5H116.583L118.843 7.26V9.4H116.123V8.26L115.183 7.32H111.063L110.043 8.34V15.66L111.063 16.68H115.223L116.203 15.7V13.52H113.203V11.2H118.843V16.7L116.543 19H109.623L107.323 16.7Z" />
            <path
                d="M123.828 13.28L118.848 5H121.828L125.168 10.74H125.208L128.548 5H131.528L126.548 13.28V19H123.828V13.28Z" />
        </symbol>
        <symbol id="icon-burger-menu" viewBox="0 0 32 32">
            <path d="M28 13.3334H4" stroke="#242424" stroke-width="2" stroke-linecap="round" stroke-linejoin="round" />
            <path d="M28 8H4" stroke="#242424" stroke-width="2" stroke-linecap="round" stroke-linejoin="round" />
            <path d="M28 18.6666H4" stroke="#242424" stroke-width="2" stroke-linecap="round" stroke-linejoin="round" />
            <path d="M28 24H4" stroke="#242424" stroke-width="2" stroke-linecap="round" stroke-linejoin="round" />
        </symbol>
        <symbol id="icon-close-menu" viewBox="0 0 32 32">
            <path d="M24 8L8 24" stroke="#F4F4F4" stroke-width="2" stroke-linecap="round" stroke-linejoin="round" />
            <path d="M8 8L24 24" stroke="#F4F4F4" stroke-width="2" stroke-linecap="round" stroke-linejoin="round" />
        </symbol>
        <symbol id="icon-facebook" viewBox="0 0 28 28">
            <g>
                <path
                    d="M17.0804 4.06011C17.2904 4.06011 17.5004 4.06011 17.9204 4.06011V7.21011C17.7104 7.21011 17.2904 7.21011 16.8704 7.21011C16.4504 7.21011 16.0304 7.21011 15.8204 7.42011C15.6104 7.63011 15.6104 7.84011 15.6104 8.33011C15.6104 8.75011 15.6104 9.03011 15.6104 9.45011H17.9204V12.1101H15.6104V23.6601H12.0404V12.0401H10.1504V9.38011H12.0404V8.47011C12.0404 6.93011 12.2504 5.81011 12.6704 5.32011C13.3004 4.41011 14.5604 3.99011 16.4504 3.99011C16.6604 4.06011 16.8704 4.06011 17.0804 4.06011Z" />
            </g>
        </symbol>
        <symbol id="icon-instagram" viewBox="0 0 28 28">
            <g>
                <path
                    d="M25.1277 9.41152C25.114 8.47146 24.9398 7.53885 24.6065 6.65964C24.0231 5.15827 22.8352 3.97109 21.3313 3.38991C20.4618 3.06332 19.5426 2.88822 18.6122 2.86835C17.4155 2.81495 17.0361 2.80005 13.9986 2.80005C10.961 2.80005 10.5716 2.80005 9.38372 2.86835C8.45454 2.88822 7.5353 3.06332 6.66582 3.38991C5.16196 3.97109 3.97279 5.15827 3.39065 6.65964C3.06351 7.52767 2.88688 8.44538 2.86946 9.37302C2.81598 10.5689 2.7998 10.9477 2.7998 13.9802C2.7998 17.0127 2.7998 17.4002 2.86946 18.5873C2.88812 19.5162 3.06351 20.4327 3.39065 21.3032C3.97404 22.8033 5.16195 23.9905 6.66706 24.5717C7.53281 24.9095 8.45205 25.1007 9.38497 25.1305C10.5828 25.1839 10.9622 25.2001 13.9998 25.2001C17.0374 25.2001 17.4267 25.2001 18.6146 25.1305C19.5438 25.1119 20.4631 24.9368 21.3338 24.6102C22.8377 24.0278 24.0256 22.8406 24.609 21.3405C24.9361 20.4712 25.1115 19.5547 25.1301 18.6246C25.1836 17.43 25.1998 17.0512 25.1998 14.0174C25.1973 10.9849 25.1973 10.5999 25.1277 9.41152ZM13.9911 19.7149C10.8142 19.7149 8.24059 17.1456 8.24059 13.974C8.24059 10.8024 10.8142 8.23302 13.9911 8.23302C17.1655 8.23302 19.7416 10.8024 19.7416 13.974C19.7416 17.1456 17.1655 19.7149 13.9911 19.7149ZM19.9705 9.35936C19.2279 9.35936 18.6296 8.7608 18.6296 8.02067C18.6296 7.28055 19.2279 6.68199 19.9705 6.68199C20.7106 6.68199 21.3102 7.28055 21.3102 8.02067C21.3102 8.7608 20.7106 9.35936 19.9705 9.35936Z" />
                <path
                    d="M13.9928 17.4789C15.9277 17.4789 17.4963 15.9104 17.4963 13.9754C17.4963 12.0405 15.9277 10.4719 13.9928 10.4719C12.0578 10.4719 10.4893 12.0405 10.4893 13.9754C10.4893 15.9104 12.0578 17.4789 13.9928 17.4789Z" />
            </g>
        </symbol>
        <symbol id="icon-youtube" viewBox="0 0 28 28">
            <g>
                <path fill-rule="evenodd" clip-rule="evenodd"
                    d="M21.2104 5.24986C20.0203 5.17986 17.5703 5.10986 13.8604 5.10986H13.3703C9.80034 5.10986 7.42038 5.17986 6.23038 5.31986C4.62038 5.45986 3.50034 5.87986 2.87034 6.43986C2.31034 6.92986 1.89036 7.83986 1.75036 9.02986C1.68036 9.79986 1.61035 11.4099 1.61035 13.8599V14.2099C1.61035 16.5199 1.68034 18.1299 1.82034 18.8999C2.03034 20.0199 2.38038 20.8599 3.08038 21.3499C3.78038 21.9099 4.97036 22.2599 6.65036 22.3999C7.84036 22.4699 10.2904 22.5399 14.0004 22.5399H14.4904C18.0604 22.5399 20.4404 22.4699 21.6304 22.3299C23.2404 22.1899 24.3604 21.7699 24.9904 21.2099C25.5504 20.7199 25.9703 19.8099 26.1103 18.6199C26.1803 17.8499 26.2504 16.2399 26.2504 13.7899V13.4399C26.2504 11.1299 26.1804 9.51986 26.0404 8.74986C25.8304 7.62986 25.4804 6.78986 24.7804 6.29986C24.0804 5.73986 22.8904 5.38986 21.2104 5.24986ZM18.4804 13.8599L10.7804 18.4799V9.23986L18.4804 13.8599Z" />
            </g>
        </symbol>
        <symbol id="icon-favorites" viewBox="0 0 32 32">
<path d="M23.6 2c-3.363 0-6.258 2.736-7.599 5.594-1.342-2.858-4.237-5.594-7.601-5.594-4.637 0-8.4 3.764-8.4 8.401 0 9.433 9.516 11.906 16.001 21.232 6.13-9.268 15.999-12.1 15.999-21.232 0-4.637-3.763-8.401-8.4-8.401z"></path>
</symbol>
      <symbol id="icon-arrow" viewBox="0 0 7 12">
        <path d="M2.83338 6.59169C2.75527 6.51422 2.69328 6.42205 2.65097 6.3205C2.60866 6.21895 2.58688 6.11003 2.58688 6.00002C2.58688 5.89001 2.60866 5.78109 2.65097 5.67954C2.69328 5.57799 2.75527 5.48582 2.83338 5.40835L6.65838 1.59168C6.73649 1.51421 6.79848 1.42204 6.84079 1.32049C6.8831 1.21894 6.90488 1.11002 6.90488 1.00001C6.90488 0.890001 6.8831 0.781079 6.84079 0.67953C6.79848 0.57798 6.73649 0.485812 6.65838 0.408343C6.50224 0.253134 6.29103 0.166016 6.07088 0.166016C5.85073 0.166016 5.63952 0.253134 5.48338 0.408343L1.65838 4.23335C1.19021 4.7021 0.927246 5.33752 0.927246 6.00002C0.927246 6.66252 1.19021 7.29794 1.65838 7.76669L5.48338 11.5917C5.6386 11.7457 5.8481 11.8324 6.06671 11.8334C6.17639 11.834 6.2851 11.813 6.38664 11.7715C6.48817 11.73 6.58051 11.6689 6.65838 11.5917C6.73649 11.5142 6.79848 11.4221 6.84079 11.3205C6.8831 11.219 6.90488 11.11 6.90488 11C6.90488 10.89 6.8831 10.7811 6.84079 10.6795C6.79848 10.578 6.73649 10.4858 6.65838 10.4084L2.83338 6.59169Z"/>
      </symbol>
      <symbol id="icon-star" viewBox="0 0 32 32">
<path d="M32 12.408l-11.056-1.607-4.944-10.018-4.944 10.018-11.056 1.607 8 7.798-1.889 11.011 9.889-5.199 9.889 5.199-1.889-11.011 8-7.798zM16 23.547l-6.983 3.671 1.334-7.776-5.65-5.507 7.808-1.134 3.492-7.075 3.492 7.075 7.807 1.134-5.65 5.507 1.334 7.776-6.983-3.671z"></path>
</symbol>
<symbol id="icon-trash" viewBox="0 0 32 32">
<path d="M4 10v20c0 1.1 0.9 2 2 2h18c1.1 0 2-0.9 2-2v-20h-22zM10 28h-2v-14h2v14zM14 28h-2v-14h2v14zM18 28h-2v-14h2v14zM22 28h-2v-14h2v14z"></path>
<path d="M26.5 4h-6.5v-2.5c0-0.825-0.675-1.5-1.5-1.5h-7c-0.825 0-1.5 0.675-1.5 1.5v2.5h-6.5c-0.825 0-1.5 0.675-1.5 1.5v2.5h26v-2.5c0-0.825-0.675-1.5-1.5-1.5zM18 4h-6v-1.975h6v1.975z"></path>
</symbol>
    </defs>
</svg>