<svg aria-hidden="true" style="position: absolute; width: 0; height: 0; overflow: hidden;" version="1.1"
    xmlns="http://www.w3.org/2000/svg" xmlns:xlink="http://www.w3.org/1999/xlink">
    <defs>
        <symbol id="icon-logo" viewBox="0 0 132 24">
            <path d="M4.98 13.28L0 5H2.98L6.32 10.74H6.36L9.7 5H12.68L7.7 13.28V19H4.98V13.28Z" />
            <path
                d="M12.6703 16.7V7.3L14.9703 5H22.1703L24.4703 7.3V16.7L22.1703 19H14.9703L12.6703 16.7ZM20.7303 16.68L21.7503 15.66V8.34L20.7303 7.32H16.4103L15.3903 8.34V15.66L16.4103 16.68H20.7303Z" />
            <path
                d="M26.3742 16.6V5H29.0942V15.66L30.1142 16.68H34.0342L35.0542 15.66V5H37.7742V16.6L35.3742 19H28.7742L26.3742 16.6Z" />
            <path
                d="M50.8781 14.36V19H48.1581V14.98L46.9581 13.64H42.5981V19H39.8781V5H48.6581L50.7981 7.16V11.4L49.4381 12.78L50.8781 14.36ZM42.5981 11.4H47.4181L48.1181 10.7V7.98L47.4181 7.28H42.5981V11.4Z" />
            <path d="M57.8234 5H67.9434V7.3H60.5434V10.84H67.3634V13.1H60.5434V16.7H67.9434V19H57.8234V5Z" />
            <path d="M69.4523 5H71.8923L78.1323 14.5H78.1723V5H80.7923V19H78.3523L72.1123 9.52H72.0723V19H69.4523V5Z" />
            <path d="M82.8977 5H93.0177V7.3H85.6177V10.84H92.4377V13.1H85.6177V16.7H93.0177V19H82.8977V5Z" />
            <path
                d="M105.527 14.36V19H102.807V14.98L101.607 13.64H97.2466V19H94.5266V5H103.307L105.447 7.16V11.4L104.087 12.78L105.527 14.36ZM97.2466 11.4H102.067L102.767 10.7V7.98L102.067 7.28H97.2466V11.4Z" />
            <path
                d="M107.323 16.7V7.3L109.623 5H116.583L118.843 7.26V9.4H116.123V8.26L115.183 7.32H111.063L110.043 8.34V15.66L111.063 16.68H115.223L116.203 15.7V13.52H113.203V11.2H118.843V16.7L116.543 19H109.623L107.323 16.7Z" />
            <path
                d="M123.828 13.28L118.848 5H121.828L125.168 10.74H125.208L128.548 5H131.528L126.548 13.28V19H123.828V13.28Z" />
        </symbol>
        <symbol id="icon-burger-menu" viewBox="0 0 32 32">
            <path d="M28 13.3334H4" stroke="#242424" stroke-width="2" stroke-linecap="round" stroke-linejoin="round" />
            <path d="M28 8H4" stroke="#242424" stroke-width="2" stroke-linecap="round" stroke-linejoin="round" />
            <path d="M28 18.6666H4" stroke="#242424" stroke-width="2" stroke-linecap="round" stroke-linejoin="round" />
            <path d="M28 24H4" stroke="#242424" stroke-width="2" stroke-linecap="round" stroke-linejoin="round" />
        </symbol>
        <symbol id="icon-close-menu" viewBox="0 0 32 32">
            <path d="M24 8L8 24" stroke="#F4F4F4" stroke-width="2" stroke-linecap="round" stroke-linejoin="round" />
            <path d="M8 8L24 24" stroke="#F4F4F4" stroke-width="2" stroke-linecap="round" stroke-linejoin="round" />
        </symbol>
        <symbol id="icon-facebook" viewBox="0 0 28 28">
            <g>
                <path
                    d="M17.0804 4.06011C17.2904 4.06011 17.5004 4.06011 17.9204 4.06011V7.21011C17.7104 7.21011 17.2904 7.21011 16.8704 7.21011C16.4504 7.21011 16.0304 7.21011 15.8204 7.42011C15.6104 7.63011 15.6104 7.84011 15.6104 8.33011C15.6104 8.75011 15.6104 9.03011 15.6104 9.45011H17.9204V12.1101H15.6104V23.6601H12.0404V12.0401H10.1504V9.38011H12.0404V8.47011C12.0404 6.93011 12.2504 5.81011 12.6704 5.32011C13.3004 4.41011 14.5604 3.99011 16.4504 3.99011C16.6604 4.06011 16.8704 4.06011 17.0804 4.06011Z" />
            </g>
        </symbol>
        <symbol id="icon-instagram" viewBox="0 0 28 28">
            <g>
                <path
                    d="M25.1277 9.41152C25.114 8.47146 24.9398 7.53885 24.6065 6.65964C24.0231 5.15827 22.8352 3.97109 21.3313 3.38991C20.4618 3.06332 19.5426 2.88822 18.6122 2.86835C17.4155 2.81495 17.0361 2.80005 13.9986 2.80005C10.961 2.80005 10.5716 2.80005 9.38372 2.86835C8.45454 2.88822 7.5353 3.06332 6.66582 3.38991C5.16196 3.97109 3.97279 5.15827 3.39065 6.65964C3.06351 7.52767 2.88688 8.44538 2.86946 9.37302C2.81598 10.5689 2.7998 10.9477 2.7998 13.9802C2.7998 17.0127 2.7998 17.4002 2.86946 18.5873C2.88812 19.5162 3.06351 20.4327 3.39065 21.3032C3.97404 22.8033 5.16195 23.9905 6.66706 24.5717C7.53281 24.9095 8.45205 25.1007 9.38497 25.1305C10.5828 25.1839 10.9622 25.2001 13.9998 25.2001C17.0374 25.2001 17.4267 25.2001 18.6146 25.1305C19.5438 25.1119 20.4631 24.9368 21.3338 24.6102C22.8377 24.0278 24.0256 22.8406 24.609 21.3405C24.9361 20.4712 25.1115 19.5547 25.1301 18.6246C25.1836 17.43 25.1998 17.0512 25.1998 14.0174C25.1973 10.9849 25.1973 10.5999 25.1277 9.41152ZM13.9911 19.7149C10.8142 19.7149 8.24059 17.1456 8.24059 13.974C8.24059 10.8024 10.8142 8.23302 13.9911 8.23302C17.1655 8.23302 19.7416 10.8024 19.7416 13.974C19.7416 17.1456 17.1655 19.7149 13.9911 19.7149ZM19.9705 9.35936C19.2279 9.35936 18.6296 8.7608 18.6296 8.02067C18.6296 7.28055 19.2279 6.68199 19.9705 6.68199C20.7106 6.68199 21.3102 7.28055 21.3102 8.02067C21.3102 8.7608 20.7106 9.35936 19.9705 9.35936Z" />
                <path
                    d="M13.9928 17.4789C15.9277 17.4789 17.4963 15.9104 17.4963 13.9754C17.4963 12.0405 15.9277 10.4719 13.9928 10.4719C12.0578 10.4719 10.4893 12.0405 10.4893 13.9754C10.4893 15.9104 12.0578 17.4789 13.9928 17.4789Z" />
            </g>
        </symbol>
        <symbol id="icon-youtube" viewBox="0 0 28 28">
            <g>
                <path fill-rule="evenodd" clip-rule="evenodd"
                    d="M21.2104 5.24986C20.0203 5.17986 17.5703 5.10986 13.8604 5.10986H13.3703C9.80034 5.10986 7.42038 5.17986 6.23038 5.31986C4.62038 5.45986 3.50034 5.87986 2.87034 6.43986C2.31034 6.92986 1.89036 7.83986 1.75036 9.02986C1.68036 9.79986 1.61035 11.4099 1.61035 13.8599V14.2099C1.61035 16.5199 1.68034 18.1299 1.82034 18.8999C2.03034 20.0199 2.38038 20.8599 3.08038 21.3499C3.78038 21.9099 4.97036 22.2599 6.65036 22.3999C7.84036 22.4699 10.2904 22.5399 14.0004 22.5399H14.4904C18.0604 22.5399 20.4404 22.4699 21.6304 22.3299C23.2404 22.1899 24.3604 21.7699 24.9904 21.2099C25.5504 20.7199 25.9703 19.8099 26.1103 18.6199C26.1803 17.8499 26.2504 16.2399 26.2504 13.7899V13.4399C26.2504 11.1299 26.1804 9.51986 26.0404 8.74986C25.8304 7.62986 25.4804 6.78986 24.7804 6.29986C24.0804 5.73986 22.8904 5.38986 21.2104 5.24986ZM18.4804 13.8599L10.7804 18.4799V9.23986L18.4804 13.8599Z" />
            </g>
        </symbol>
        <symbol id="icon-favorites" viewBox="0 0 32 32">
<path d="M23.6 2c-3.363 0-6.258 2.736-7.599 5.594-1.342-2.858-4.237-5.594-7.601-5.594-4.637 0-8.4 3.764-8.4 8.401 0 9.433 9.516 11.906 16.001 21.232 6.13-9.268 15.999-12.1 15.999-21.232 0-4.637-3.763-8.401-8.4-8.401z"></path>
</symbol>
      <symbol id="icon-arrow" viewBox="0 0 7 12">
        <path d="M2.83338 6.59169C2.75527 6.51422 2.69328 6.42205 2.65097 6.3205C2.60866 6.21895 2.58688 6.11003 2.58688 6.00002C2.58688 5.89001 2.60866 5.78109 2.65097 5.67954C2.69328 5.57799 2.75527 5.48582 2.83338 5.40835L6.65838 1.59168C6.73649 1.51421 6.79848 1.42204 6.84079 1.32049C6.8831 1.21894 6.90488 1.11002 6.90488 1.00001C6.90488 0.890001 6.8831 0.781079 6.84079 0.67953C6.79848 0.57798 6.73649 0.485812 6.65838 0.408343C6.50224 0.253134 6.29103 0.166016 6.07088 0.166016C5.85073 0.166016 5.63952 0.253134 5.48338 0.408343L1.65838 4.23335C1.19021 4.7021 0.927246 5.33752 0.927246 6.00002C0.927246 6.66252 1.19021 7.29794 1.65838 7.76669L5.48338 11.5917C5.6386 11.7457 5.8481 11.8324 6.06671 11.8334C6.17639 11.834 6.2851 11.813 6.38664 11.7715C6.48817 11.73 6.58051 11.6689 6.65838 11.5917C6.73649 11.5142 6.79848 11.4221 6.84079 11.3205C6.8831 11.219 6.90488 11.11 6.90488 11C6.90488 10.89 6.8831 10.7811 6.84079 10.6795C6.79848 10.578 6.73649 10.4858 6.65838 10.4084L2.83338 6.59169Z"/>
      </symbol>
      <symbol id="icon-star" viewBox="0 0 32 32">
<path d="M32 12.408l-11.056-1.607-4.944-10.018-4.944 10.018-11.056 1.607 8 7.798-1.889 11.011 9.889-5.199 9.889 5.199-1.889-11.011 8-7.798zM16 23.547l-6.983 3.671 1.334-7.776-5.65-5.507 7.808-1.134 3.492-7.075 3.492 7.075 7.807 1.134-5.65 5.507 1.334 7.776-6.983-3.671z"></path>
</symbol>
<symbol id="icon-exercise-arrow" viewBox="0 0 16 16">
            <g>
              <path d="M7.5 14L14 7.5M14 7.5L7.5 1M14 7.5H1" stroke="#242424" stroke-width="1.3" stroke-linecap="round" stroke-linejoin="round"/>
            </g>
        </symbol>
        <symbol id="icon-sport" viewBox="0 0 24 24">
            <g>
              <circle cx="12" cy="12" r="12" fill="#242424"/>
              <path d="M18.8234 8.72544C18.6138 8.47504 18.2403 8.44212 17.9899 8.65092L16.349 10.0294L15.5943 8.15967C15.5675 8.08949 15.5267 8.03057 15.4799 7.97859C15.3257 7.63549 15.058 7.34091 14.6889 7.17023C14.5286 7.09745 14.3631 7.05846 14.1977 7.0394C14.1613 7.02034 14.1283 6.99521 14.0868 6.98222L11.199 6.17732C11.037 6.13314 10.8741 6.16173 10.7407 6.2397C10.5821 6.29342 10.4461 6.40865 10.3811 6.57587L9.29378 9.37178C9.17594 9.67589 9.3267 10.019 9.63168 10.1386C9.93492 10.2564 10.2789 10.1048 10.3976 9.79978L11.316 7.43882L12.6312 7.80444C12.5991 7.85643 12.5645 7.90495 12.5385 7.9604L10.8524 11.6149C10.8282 11.6686 10.8152 11.7232 10.7979 11.7787L8.7488 15.214L5.31955 16.3611C4.9314 16.6514 4.84909 17.1981 5.13587 17.5862C5.42439 17.9752 5.97282 18.0575 6.36011 17.7708L9.86907 16.5621C9.97651 16.4841 10.0545 16.3819 10.1134 16.2719C10.1576 16.2251 10.2078 16.1878 10.2416 16.1298L11.4633 14.0816L13.6319 15.9296L11.3116 18.5445C10.9919 18.9049 11.024 19.4603 11.3862 19.7791C11.7474 20.1005 12.3011 20.0667 12.6225 19.7046L15.5181 16.4426C15.6082 16.342 15.6619 16.2259 15.6983 16.1047C15.7199 16.0388 15.7199 15.9704 15.7251 15.9019C15.7251 15.8673 15.7381 15.8361 15.7355 15.804C15.7277 15.5649 15.6307 15.3327 15.4349 15.1672L13.4395 13.4656C13.5834 13.3287 13.7055 13.1658 13.7939 12.9743L15.0866 10.1749L15.5007 11.2779C15.5181 11.3758 15.551 11.472 15.6203 11.5525C15.6827 11.627 15.7624 11.6764 15.8473 11.7111C15.856 11.7154 15.8664 11.7163 15.8768 11.7189C15.9305 11.7379 15.9851 11.7561 16.0414 11.7587C16.1081 11.7648 16.1757 11.7561 16.2441 11.7371C16.2459 11.7362 16.2467 11.7362 16.2467 11.7362C16.2649 11.7319 16.2831 11.7353 16.3013 11.7275C16.3975 11.6912 16.4711 11.6296 16.5344 11.5577L18.8893 9.55892C19.1397 9.34838 19.034 8.97583 18.8234 8.72544Z" fill="#F4F4F4"/>
              <path d="M15.8448 7.30102C16.7564 7.30102 17.4954 6.56206 17.4954 5.65051C17.4954 4.73896 16.7564 4 15.8448 4C14.9333 4 14.1943 4.73896 14.1943 5.65051C14.1943 6.56206 14.9333 7.30102 15.8448 7.30102Z" fill="#F4F4F4"/>
            </g>
        </symbol>
        <symbol id="icon-star" viewBox="0 0 14 13">
            <g>
              <path d="M6.04894 0.927052C6.3483 0.0057416 7.6517 0.00574088 7.95106 0.927052L8.79611 3.52786C8.92999 3.93989 9.31394 4.21885 9.74717 4.21885H12.4818C13.4505 4.21885 13.8533 5.45846 13.0696 6.02786L10.8572 7.63525C10.5067 7.8899 10.3601 8.34127 10.494 8.75329L11.339 11.3541C11.6384 12.2754 10.5839 13.0415 9.80017 12.4721L7.58779 10.8647C7.2373 10.6101 6.7627 10.6101 6.41222 10.8647L4.19983 12.4721C3.41612 13.0415 2.36164 12.2754 2.66099 11.3541L3.50604 8.75329C3.63992 8.34127 3.49326 7.8899 3.14277 7.63525L0.930391 6.02787C0.146677 5.45846 0.549452 4.21885 1.51818 4.21885H4.25283C4.68606 4.21885 5.07001 3.93989 5.20389 3.52786L6.04894 0.927052Z" fill="#EEA10C"/>
            </g>
        </symbol>
        <symbol id="icon-to-top-button" viewBox="0 0 32 32">
            <path fill="#242424" d="M32 16c0 8.837-7.163 16-16 16s-16-7.163-16-16c0-8.837 7.163-16 16-16s16 7.163 16 16z"></path>
            <path fill="#f4f4f4" d="M16.518 11.993v8.169h-0.869v-8.169l-4.084 4.084-0.615-0.615 5.134-5.134 5.134 5.134-0.615 0.615-4.084-4.084z"></path>
        </symbol>
				<symbol id="icon-pedastrian" viewBox="0 0 32 32">
<path d="M29.647 9.451c-0.419-0.501-1.166-0.567-1.667-0.149l-3.282 2.757-1.509-3.739c-0.054-0.14-0.135-0.258-0.229-0.362-0.308-0.686-0.844-1.275-1.582-1.617-0.32-0.146-0.652-0.224-0.982-0.262-0.073-0.038-0.139-0.088-0.222-0.114l-5.775-1.61c-0.324-0.088-0.65-0.031-0.917 0.125-0.317 0.107-0.589 0.338-0.719 0.672l-2.175 5.592c-0.236 0.608 0.066 1.294 0.676 1.534 0.607 0.236 1.294-0.068 1.532-0.678l1.837-4.722 2.63 0.731c-0.064 0.104-0.133 0.201-0.185 0.312l-3.372 7.309c-0.049 0.107-0.075 0.217-0.109 0.328l-4.098 6.871-6.859 2.294c-0.776 0.58-0.941 1.674-0.367 2.45 0.577 0.778 1.674 0.943 2.448 0.369l7.018-2.417c0.215-0.156 0.371-0.36 0.489-0.58 0.088-0.094 0.189-0.168 0.256-0.284l2.443-4.096 4.337 3.696-4.641 5.23c-0.639 0.721-0.575 1.832 0.149 2.469 0.723 0.643 1.83 0.575 2.473-0.149l5.791-6.524c0.18-0.201 0.288-0.433 0.36-0.676 0.043-0.132 0.043-0.269 0.054-0.406 0-0.069 0.026-0.132 0.021-0.196-0.016-0.478-0.21-0.943-0.601-1.274l-3.991-3.403c0.288-0.274 0.532-0.6 0.709-0.983l2.585-5.599 0.828 2.206c0.035 0.196 0.1 0.388 0.239 0.549 0.125 0.149 0.284 0.248 0.454 0.317 0.017 0.009 0.038 0.010 0.059 0.016 0.107 0.038 0.216 0.075 0.329 0.080 0.133 0.012 0.269-0.005 0.405-0.043 0.004-0.002 0.005-0.002 0.005-0.002 0.036-0.009 0.073-0.002 0.109-0.017 0.192-0.073 0.34-0.196 0.466-0.34l4.71-3.998c0.501-0.421 0.289-1.166-0.132-1.667z"></path>
<path d="M23.69 6.602c1.823 0 3.301-1.478 3.301-3.301s-1.478-3.301-3.301-3.301c-1.823 0-3.301 1.478-3.301 3.301s1.478 3.301 3.301 3.301z"></path>
</symbol>
<symbol id="icon-inverted-commas" viewBox="0 0 36 32">
<path d="M7.812 17.131c2.184-0.864 3.934-0.638 5.252 0.68s1.709 3.418 1.173 6.3c-0.41 2.142-1.318 3.789-2.716 4.941-1.359 1.111-2.946 1.668-4.757 1.668-2.472 0-4.179-0.947-5.126-2.842-0.949-1.933-1.133-4.527-0.557-7.782 0.329-1.769 0.866-3.561 1.606-5.372 0.742-1.813 1.732-3.665 2.965-5.559 1.237-1.896 2.842-3.543 4.819-4.941 1.849-1.331 4.058-2.287 6.452-2.704l0.095-0.014-0.617 6.547c-2.018 0.412-3.81 1.461-5.374 3.149-1.564 1.647-2.635 3.624-3.211 5.929zM26.404 17.131c2.184-0.864 3.934-0.638 5.252 0.68s1.707 3.418 1.173 6.3c-0.412 2.142-1.318 3.789-2.718 4.941-1.359 1.111-2.944 1.668-4.757 1.668-2.47 0-4.179-0.947-5.126-2.842-0.947-1.933-1.131-4.527-0.555-7.782 0.329-1.769 0.866-3.561 1.606-5.372 0.742-1.813 1.73-3.665 2.965-5.559 1.235-1.896 2.842-3.543 4.819-4.941 1.848-1.331 4.056-2.286 6.448-2.704l0.095-0.014-0.617 6.547c-2.018 0.412-3.808 1.461-5.372 3.149-1.566 1.647-2.635 3.624-3.213 5.929z"></path>
</symbol>
<symbol id="icon-gym" viewBox="0 0 32 32">
<path d="M7.36 9.143h-1.92c-0.532 0-0.96 0.459-0.96 1.029v4.457h-0.96c-0.176 0-0.32 0.154-0.32 0.343v2.057c0 0.188 0.144 0.343 0.32 0.343h0.96v4.457c0 0.57 0.428 1.028 0.96 1.028h1.92c0.532 0 0.96-0.459 0.96-1.028v-11.657c0-0.57-0.428-1.029-0.96-1.029zM28.48 14.629h-0.96v-4.457c0-0.57-0.428-1.029-0.96-1.029h-1.92c-0.532 0-0.96 0.459-0.96 1.029v11.657c0 0.57 0.428 1.028 0.96 1.028h1.92c0.532 0 0.96-0.459 0.96-1.028v-4.457h0.96c0.176 0 0.32-0.154 0.32-0.343v-2.057c0-0.189-0.144-0.343-0.32-0.343zM21.44 6.4h-1.92c-0.532 0-0.96 0.459-0.96 1.029v7.2h-5.12v-7.2c0-0.57-0.428-1.029-0.96-1.029h-1.92c-0.532 0-0.96 0.459-0.96 1.029v17.143c0 0.57 0.428 1.029 0.96 1.029h1.92c0.532 0 0.96-0.459 0.96-1.029v-7.2h5.12v7.2c0 0.57 0.428 1.029 0.96 1.029h1.92c0.532 0 0.96-0.459 0.96-1.029v-17.143c0-0.57-0.428-1.029-0.96-1.029z"></path>
</symbol>
    </defs>
</svg>